<svg xmlns="http://www.w3.org/2000/svg" viewBox="0 0 1000 1300" role="img" aria-label="Deutschlandkarte">
  <defs>
    <linearGradient id="surface" x1="0" x2="0" y1="0" y2="1">
      <stop offset="0%" stop-color="#f6f1e7"/>
      <stop offset="100%" stop-color="#ece2d0"/>
    </linearGradient>
    <linearGradient id="countryFill" x1="0" x2="0" y1="0" y2="1">
      <stop offset="0%" stop-color="#dfe7ea"/>
      <stop offset="100%" stop-color="#cfd8dc"/>
    </linearGradient>
  </defs>
  <rect width="1000" height="1300" rx="56" fill="url(#surface)"/>
  <g opacity="0.55" stroke="#cbbfae" stroke-width="2">
    <path d="M120 180 H880"/>
    <path d="M120 360 H880"/>
    <path d="M120 540 H880"/>
    <path d="M120 720 H880"/>
    <path d="M120 900 H880"/>
    <path d="M120 1080 H880"/>
    <path d="M220 120 V1180"/>
    <path d="M400 120 V1180"/>
    <path d="M580 120 V1180"/>
    <path d="M760 120 V1180"/>
  </g>
  <path
    d="M485 88
      L566 120 L626 180 L706 208 L746 296 L714 374 L768 478 L720 560
      L748 656 L704 744 L724 860 L646 958 L610 1060 L542 1138 L454 1172
      L384 1128 L300 1102 L238 1026 L230 936 L166 838 L188 744 L148 650
      L186 560 L154 474 L210 366 L290 298 L320 196 L384 146 Z"
    fill="url(#countryFill)"
    stroke="#7f8f97"
    stroke-width="10"
    stroke-linejoin="round"
  />
  <g fill="none" stroke="#a5b3b8" stroke-width="4" opacity="0.65" stroke-linecap="round">
    <path d="M320 202 L456 248 L540 216 L644 262"/>
    <path d="M278 336 L396 382 L516 356 L648 420"/>
    <path d="M230 520 L376 562 L530 532 L684 598"/>
    <path d="M230 714 L370 744 L536 720 L682 774"/>
    <path d="M254 920 L410 930 L566 908 L664 968"/>
    <path d="M352 1080 L492 1048 L604 1088"/>
    <path d="M340 164 L310 306 L288 446 L300 612 L286 786 L310 1012"/>
    <path d="M466 132 L470 312 L468 510 L470 716 L476 1106"/>
    <path d="M614 216 L608 404 L606 604 L616 850 L586 1044"/>
  </g>
  <text x="500" y="650" text-anchor="middle" fill="#6a787d" font-family="Segoe UI, Arial, sans-serif" font-size="78" font-weight="700" letter-spacing="0.18em">DE</text>
</svg>
